<?xml version="1.0" encoding="UTF-8"?>
<svg id="PREVIEW" xmlns="http://www.w3.org/2000/svg" viewBox="0 0 512 512">
  <defs>
    <style>
      .cls-1, .cls-2, .cls-3, .cls-4, .cls-5, .cls-6, .cls-7, .cls-8 {
        fill: none;
      }

      .cls-1, .cls-4 {
        stroke-miterlimit: 10;
      }

      .cls-1, .cls-8 {
        stroke: #fde4f3;
      }

      .cls-9 {
        fill: #fff;
      }

      .cls-10 {
        fill: #bcd6ff;
      }

      .cls-11 {
        fill: #fde4f3;
      }

      .cls-12 {
        fill: #5447e8;
      }

      .cls-13 {
        fill: #ffa2ff;
      }

      .cls-2 {
        stroke: #bcd6ff;
        stroke-width: .54px;
      }

      .cls-2, .cls-3, .cls-5, .cls-6, .cls-7, .cls-8 {
        stroke-linecap: round;
        stroke-linejoin: round;
      }

      .cls-3 {
        stroke-width: .91px;
      }

      .cls-3, .cls-4, .cls-5, .cls-6, .cls-7 {
        stroke: #000;
      }

      .cls-4 {
        stroke-width: 2px;
      }

      .cls-14 {
        opacity: .47;
      }

      .cls-5 {
        stroke-width: .97px;
      }

      .cls-6 {
        stroke-width: .77px;
      }

      .cls-7 {
        stroke-width: .67px;
      }

      .cls-15 {
        fill: #f8679b;
      }

      .cls-16 {
        opacity: .41;
      }

      .cls-17 {
        fill: #fccc41;
      }

      .cls-18 {
        fill: #87a2ff;
      }

      .cls-8 {
        stroke-width: .66px;
      }
    </style>
  </defs>
  <rect class="cls-9" width="512" height="512"/>
  <g>
    <path class="cls-9" d="m61.01,242.47c-9.3,0-16.86-7.56-16.86-16.86V63.49c0-9.29,7.56-16.85,16.86-16.85h86.91l1.44-2.94c1.04-2.12,3.16-3.36,5.39-3.36.77,0,1.56.15,2.31.46l13.97,5.84h52.1c9.29,0,16.85,7.56,16.85,16.85v11.96l12.4,5.18c.09.04.17.07.26.11l.31.08c1.72.44,3.15,1.62,3.92,3.22.77,1.6.78,3.46.05,5.07l-16.93,37.14v99.35c0,9.3-7.56,16.86-16.85,16.86H61.01Z"/>
    <g>
      <path class="cls-18" d="m233.21,62.72v162.12c0,5.97-4.88,10.86-10.85,10.86h-59.32l-3.32-2.77-2.81,2.77h-57.06l-2.55-2.64-3.57,2.64h-33.48c-5.97,0-10.86-4.89-10.86-10.86V62.72c0-5.97,4.89-10.85,10.86-10.85h162.12c5.97,0,10.85,4.88,10.85,10.85Z"/>
      <g>
        <polygon points="94.32 180.55 154.23 61.06 250.68 85.87 185.13 229.66 94.32 180.55"/>
        <g>
          <polygon class="cls-12" points="84.53 187.19 153.98 45.57 249.3 85.4 183.94 229.06 84.53 187.19"/>
          <polygon class="cls-11" points="95.85 177.82 157.3 51.02 244.28 86.12 185.4 215.54 95.85 177.82"/>
          <g>
            <path class="cls-17" d="m178.25,62.62l42.35,18.43.5-2.24c.52-2.3-.19-4.71-1.88-6.36l-2.43-2.38.86-5.74c-.36-2.48-2.07-4.55-4.44-5.36l-14.01-4.82c-1.78-.61-3.73-.45-5.38.45l-3.83,4.12-4.03-.35c-1.99-.17-3.96.54-5.38,1.95l-2.32,2.3Z"/>
            <line class="cls-7" x1="189.99" y1="58.71" x2="216.79" y2="70.07"/>
          </g>
          <g>
            <rect class="cls-15" x="180.84" y="85.07" width="8.05" height="35.56" transform="translate(58.16 -66.56) rotate(24.12)"/>
            <rect class="cls-15" x="180.84" y="85.07" width="8.05" height="35.56" transform="translate(354.26 -23.86) rotate(114.11)"/>
          </g>
        </g>
        <g>
          <path d="m134.75,116.42c-.1-.14-.12-.33-.05-.5.11-.26.42-.38.69-.27l67.71,29.47c.26.12.38.42.27.69-.11.26-.42.38-.69.27l-67.71-29.47c-.09-.04-.17-.11-.22-.19Z"/>
          <path d="m131.92,122.92c-.1-.14-.12-.33-.05-.5.11-.26.42-.38.69-.27l67.71,29.47c.26.12.38.42.27.69-.11.26-.42.38-.69.27l-67.71-29.47c-.09-.04-.17-.11-.22-.19Z"/>
          <path d="m129.09,129.43c-.1-.14-.12-.33-.05-.5.11-.26.42-.38.69-.27l67.71,29.47c.26.12.38.42.27.69-.11.26-.42.38-.69.27l-67.71-29.47c-.09-.04-.17-.11-.22-.19Z"/>
          <path d="m126.26,135.93c-.1-.14-.12-.33-.05-.5.11-.26.42-.38.69-.27l67.71,29.47c.26.12.38.42.27.69-.11.26-.42.38-.69.27l-67.71-29.47c-.09-.04-.17-.11-.22-.19Z"/>
          <path d="m123.43,142.43c-.1-.14-.12-.33-.05-.5.11-.26.42-.38.69-.27l67.71,29.47c.26.12.38.42.27.69-.11.26-.42.38-.69.27l-67.71-29.47c-.09-.04-.17-.11-.22-.19Z"/>
          <path d="m120.6,148.93c-.1-.14-.12-.33-.05-.5.11-.26.42-.38.69-.27l67.71,29.47c.26.12.38.42.27.69-.11.26-.42.38-.69.27l-67.71-29.47c-.09-.04-.17-.11-.22-.19Z"/>
          <path d="m117.77,155.43c-.1-.14-.12-.33-.05-.5.11-.26.42-.38.69-.27l67.71,29.47c.26.12.38.42.27.69-.11.26-.42.38-.69.27l-67.71-29.47c-.09-.04-.17-.11-.22-.19Z"/>
          <path d="m114.95,161.94c-.1-.14-.12-.33-.05-.5.11-.26.42-.38.69-.27l67.71,29.47c.26.12.38.42.27.69-.11.26-.42.38-.69.27l-67.71-29.47c-.09-.04-.17-.11-.22-.19Z"/>
        </g>
      </g>
      <g>
        <g>
          <g>
            <path class="cls-4" d="m64.26,124.12s10.84-51.46,23.63-58.75c12.79-7.28,24.19,6.87,24.19,6.87"/>
            <g>
              <polygon points="108.05 71.33 111.74 66.89 115.02 70.39 110.81 74.76 108.05 71.33"/>
              <path d="m121.7,77.78c-1.24,3.11-4.76,4.63-7.87,3.4s-4.63-4.76-3.39-7.88c1.24-3.11,4.76-4.63,7.87-3.39s4.63,4.76,3.39,7.87Z"/>
            </g>
          </g>
          <g>
            <path class="cls-4" d="m100.54,128.27s.86-52.59-9.98-62.53c-10.85-9.94-25.12,1.32-25.12,1.32"/>
            <g>
              <polygon points="69.57 67.07 66.96 61.92 62.99 64.61 66.12 69.81 69.57 67.07"/>
              <path d="m54.84,70.33c.51,3.31,3.61,5.57,6.92,5.06s5.57-3.61,5.06-6.92-3.61-5.57-6.92-5.06c-3.31.51-5.57,3.61-5.06,6.92Z"/>
            </g>
          </g>
        </g>
        <g>
          <path class="cls-10" d="m73.6,163.07c-2.66-1.06-4.92-2.78-6.77-5.15-9.07-11.63-4.39-35.34-4.18-36.35l5.88,1.19c-1.23,6.1-3.08,23.63,3.04,31.47,2.01,2.58,4.72,3.91,8.28,4.07,3.87.18,7.02-.98,9.62-3.55,8.5-8.38,7.99-28.05,7.98-28.25l6-.19c.03.91.58,22.51-9.77,32.71-3.8,3.75-8.55,5.52-14.1,5.27-2.16-.1-4.15-.51-5.96-1.23Z"/>
          <path class="cls-10" d="m150.55,216.14c-8.44-6.67-18.95-9.08-29.11-11.42-1.4-.32-2.81-.64-4.2-.97-2.53-.61-5.2-1.31-7.87-2.18-1.15-.37-2.29-.77-3.43-1.21l-.06-.03c1.08-2.57,2.27-5.1,3.59-7.56.85-1.61,1.76-3.18,2.72-4.73.48-.8.98-1.58,1.5-2.36l-5-3.3c-.63.95-1.23,1.9-1.82,2.87-.94,1.54-1.84,3.1-2.69,4.68-1.37,2.58-2.63,5.22-3.77,7.92-.05-.04-.11-.06-.16-.09-.21-.12-.42-.23-.63-.35-3.97-2.22-7.51-5.09-10.02-8.87-4.67-7.03-5.23-16.5-5.46-24.52h0c-.01-.61-.03-1.2-.04-1.78l-6,.16c0,.58.03,1.18.03,1.79h0c.27,8.79.88,19.25,6.47,27.67,2.86,4.3,6.69,7.58,10.95,10.13.81.49,1.63.94,2.47,1.37.08.05.15.09.23.13-1.18,3.4-2.16,6.87-2.96,10.41-1.36,6.13-2.35,13.89-1.4,21.8h6.04c-1.01-7.34-.08-14.7,1.21-20.48.71-3.16,1.58-6.25,2.61-9.28l.13.06c.31.11.61.23.92.33,3.75,1.38,7.53,2.41,11.04,3.24,1.41.35,2.83.68,4.26,1,9.51,2.19,19.34,4.45,26.73,10.28,4.79,3.78,8.33,9.05,10.2,14.85h6.24c-2.03-7.64-6.5-14.65-12.72-19.56Z"/>
        </g>
        <g>
          <path d="m129.04,183.48c-3.25,8.17-12.5,12.16-20.67,8.91-8.17-3.25-12.16-12.5-8.91-20.67,3.25-8.17,12.5-12.16,20.67-8.91s12.16,12.5,8.91,20.67Z"/>
          <path class="cls-1" d="m124.14,181.53c-2.17,5.46-8.36,8.13-13.82,5.96-5.46-2.17-8.13-8.36-5.96-13.82,2.17-5.46,8.36-8.13,13.82-5.96,5.46,2.17,8.13,8.36,5.96,13.82Z"/>
        </g>
        <g>
          <path d="m109.37,201.57l-4.56,4.76c-.31-.1-.61-.22-.92-.33.81-2.74,1.53-4.53,2.06-5.64,1.14.44,2.28.84,3.42,1.21Z"/>
          <path d="m100.25,197.76l-2.23,5.6c-.84-.43-1.66-.89-2.47-1.37l4.07-4.58c.21.12.41.23.63.35Z"/>
        </g>
      </g>
      <g>
        <g>
          <path class="cls-17" d="m227.52,176.02s-.01,0-.03.02l-64.37,51.66-11.63-4.62-.78-11.05,60.52-53.63c11.15,6.36,16.29,17.62,16.29,17.62Z"/>
          <g>
            <path d="m152.86,216.06c-.05-.02-.1-.06-.13-.1-.14-.16-.12-.39.04-.53l61.96-53.11c.16-.13.39-.12.53.04.14.16.12.39-.04.53l-61.96,53.11c-.11.1-.27.11-.39.06Z"/>
            <path d="m156.87,219.65c-.05-.02-.1-.06-.14-.1-.13-.16-.11-.4.05-.53l60.49-50.59c.16-.13.39-.11.53.05.13.16.11.4-.05.53l-60.49,50.59c-.11.09-.26.11-.39.06Z"/>
            <path d="m161.99,225.39c-.05-.02-.1-.06-.14-.1-.13-.16-.12-.39.04-.53l60.72-51.98c.16-.13.39-.12.53.04.13.16.12.39-.04.53l-60.72,51.98c-.11.1-.27.11-.39.06Z"/>
          </g>
          <path class="cls-13" d="m227.52,176.02s-.01,0-.03.02c-.43.18-5.61-.05-10.67-6.14-4.52-5.44-5.94-8.32-5.7-10.65.05-.54.12-.85.12-.85,15.88,1.86,16.29,17.62,16.29,17.62Z"/>
          <polygon class="cls-13" points="167.19 222.16 163.12 227.7 155.26 226.07 151.02 223.85 150.06 219.57 150.71 212.03 157.55 210.69 156.14 216.19 162.99 214.85 161 221.35 167.19 222.16"/>
        </g>
        <path d="m155.26,226.07l-5.67-1.17.47-5.33c.41.09.81.2,1.21.34h0c1.68.62,3.15,1.92,3.77,3.61.12.35.21.71.25,1.08.07.49.06,1-.03,1.48Z"/>
        <path d="m223.9,171.07c-.67.63-2.87-.62-4.93-2.8-2.06-2.18-3.19-4.45-2.52-5.08.67-.63,2.87.62,4.93,2.8,2.06,2.18,3.19,4.45,2.52,5.08Z"/>
      </g>
      <g>
        <line class="cls-6" x1="69.97" y1="196.55" x2="69.97" y2="222.09"/>
        <line class="cls-6" x1="77.4" y1="201.66" x2="61.86" y2="217.6"/>
        <line class="cls-6" x1="82.74" y1="209.32" x2="57.2" y2="209.32"/>
        <line class="cls-6" x1="77.99" y1="217.11" x2="61.86" y2="201.76"/>
      </g>
      <g>
        <line class="cls-6" x1="140.78" y1="54.93" x2="140.78" y2="80.47"/>
        <line class="cls-6" x1="148.21" y1="60.05" x2="132.67" y2="75.98"/>
        <line class="cls-6" x1="153.55" y1="67.7" x2="128.01" y2="67.7"/>
        <line class="cls-6" x1="148.8" y1="75.49" x2="132.67" y2="60.15"/>
      </g>
      <g>
        <line class="cls-6" x1="212.1" y1="201.83" x2="212.1" y2="227.37"/>
        <line class="cls-6" x1="219.53" y1="206.94" x2="203.99" y2="222.87"/>
        <line class="cls-6" x1="224.87" y1="214.6" x2="199.33" y2="214.6"/>
        <line class="cls-6" x1="220.12" y1="222.38" x2="203.99" y2="207.04"/>
      </g>
      <g>
        <g>
          <path class="cls-17" d="m87.64,165.46c-.65,2.02-2.07,3.8-4.12,4.85l-5.26,2.7-8.83,4.53c-4.09,2.09-9.17.5-11.29-3.54-1.06-2.01-1.19-4.28-.54-6.31.65-2.02,2.08-3.8,4.11-4.85l7.78-3.98,6.32-3.24c4.09-2.1,9.17-.51,11.29,3.53,1.05,2.02,1.19,4.29.54,6.31Z"/>
          <path class="cls-11" d="m77.77,173.19l-8.34,4.35c-4.09,2.09-9.17.5-11.29-3.54-1.06-2.01-1.19-4.28-.54-6.31.65-2.02,2.08-3.8,4.11-4.85l6.99-3.63c1.34,1.11,3.04,2.99,4.72,5.55,1.89,2.89,3.68,6.26,4.34,8.43Z"/>
        </g>
        <path d="m77.99,173.15l-.64.33c-2.15-5.29-4.71-10.55-9.14-13.96l.69-.35c4.39,3.5,6.94,8.73,9.09,13.99Z"/>
      </g>
    </g>
  </g>
  <g>
    <path class="cls-9" d="m296.39,240.93c-9.3,0-16.86-7.56-16.86-16.86V61.95c0-9.29,7.56-16.85,16.86-16.85h60.5c2.92-7.37,10.46-12.47,18.52-12.47.62,0,1.24.03,1.85.09,3.93-4.14,9.37-6.88,15.03-7.56.81-.1,1.62-.15,2.41-.15,4.36,0,8.01,1.44,10.55,4.15,2.27,2.43,3.17,5.38,3.52,8,1.18.5,2.38,1.18,3.48,2.13,1.74,1.51,3.01,3.5,3.74,5.8h42.52c9.29,0,16.85,7.56,16.85,16.85v162.12c0,5.27-2.42,10.15-6.63,13.4-.03.03-.07.05-.1.08-.54.4-1.04.73-1.55,1.03-2.58,1.54-5.54,2.35-8.57,2.35h-162.12Z"/>
    <g>
      <path class="cls-12" d="m469.36,62.72v162.12c0,3.51-1.69,6.64-4.29,8.64-.34.25-.69.49-1.06.71-1.61.96-3.49,1.51-5.5,1.51h-11.19l-63.57-18.73-73.28,18.73h-14.08c-5.97,0-10.86-4.89-10.86-10.86V62.72c0-5.97,4.89-10.85,10.86-10.85h162.12c5.97,0,10.85,4.88,10.85,10.85Z"/>
      <g>
        <path class="cls-10" d="m463.53,186.4c-3.63-7.92-9.06-14.95-14.3-21.75-4.88-6.33-9.92-12.87-13.5-20.09-6.37-12.88-7.96-28.08-4.45-42.01,9.33,1.25,18.96-2.4,23.85-9.81,1.72-2.6,2.53-5.13,2.41-7.52-.15-2.96-1.89-5.56-4.32-6.46-2.01-.75-4.43-.43-7.19.96-8.7,4.39-12.94,13.69-14.96,20.72-.12.42-.24.85-.35,1.27-2.51-.4-4.99-1.18-7.33-2.34-9.75-4.83-16.81-15.62-18.42-28.16-.77-6.06-.42-12.46,1.1-19.34h-.77c-1.51,6.91-1.86,13.34-1.07,19.44,1.64,12.78,8.85,23.79,18.83,28.73,2.39,1.19,4.91,1.98,7.47,2.4-3.52,14.08-1.91,29.43,4.53,42.45,3.61,7.29,8.68,13.86,13.58,20.21,5.22,6.77,10.61,13.77,14.21,21.62,6.59,14.37,6.96,31.78,1.16,47.47.37-.22.72-.46,1.06-.71,5.49-15.62,5-32.83-1.54-47.08Zm-31.74-85.75c2.8-9.73,7.98-16.93,14.58-20.26,2.56-1.29,4.78-1.61,6.59-.93,2.12.79,3.7,3.18,3.83,5.8.12,2.23-.65,4.61-2.28,7.07-4.72,7.15-14.01,10.67-23.04,9.49.1-.39.21-.78.32-1.17Z"/>
        <g>
          <path class="cls-10" d="m322.94,235.7h-.75c.12-5.1-.69-10.4-2.48-15.56-4.01-11.55-12.33-22.27-25.42-32.79-.71-.56-1.41-1.12-2.12-1.68-2.25-1.77-4.55-3.58-6.64-5.57v-1.04c2.21,2.17,4.68,4.11,7.1,6.02.71.56,1.42,1.12,2.12,1.69,13.22,10.6,21.61,21.44,25.67,33.12,1.82,5.24,2.64,10.62,2.52,15.81Z"/>
          <path class="cls-10" d="m341.04,87.42c-2.48,7.89-7.48,18.26-17.14,22.9-3.82,1.84-8.05,2.61-12.14,3.35-2.63.48-5.35.97-7.93,1.75-7.18,2.15-13.53,6.85-18.3,13.01v-1.42c4.78-5.79,11-10.18,18.09-12.31,2.62-.79,5.36-1.29,8.01-1.77,4.04-.73,8.22-1.49,11.94-3.28,9.42-4.53,14.31-14.71,16.76-22.45,3.6-11.42,4.37-23.6,2.34-35.33h.76c2.03,11.81,1.24,24.06-2.39,35.55Z"/>
        </g>
      </g>
      <g>
        <g>
          <path class="cls-13" d="m407.1,73.92c.8,4.25,1.04,8.66,1.17,12.8.15,4.88.18,9.77.48,14.64.18,3.12-.77,6.19-2.67,8.64-2.13,2.75-5.27,4.51-8.72,4.9l-5.44.72v.12s.73,5.69.73,5.69l.26,2.11.85,4.63,1.74,25.5-32.09-24.9-1.88-20.75c-8.02-.12-14.15-7.05-11.34-14.13,1.85-4.64,5.96-4.35,9.06-3.32-1.66-2.95-2.77-6.26-3.17-9.83-1.63-14.25,8.6-27.12,22.84-28.74,7.45-.85,15.12,1.37,20.61,6.56,4.35,4.11,6.49,9.59,7.58,15.36Z"/>
          <g>
            <path d="m378.12,78.52c-.95.58-1.6,1.42-1.47,2.18.05.3.23.59.51.81.23.19.54.35.93.4.53.07,1.12-.05,1.67-.2,1.06-.28,2.1-.61,3.09-1.01.46-.18.92-.38,1.27-.65.7-.54.83-1.27.61-1.89-.17-.48-.6-.96-1.36-1.05-1.45-.17-4.12.71-5.25,1.4Z"/>
            <path d="m404.37,74.93c1.08.25,1.97.84,2.08,1.6.04.31-.03.63-.22.93-.16.25-.41.5-.75.67-.48.24-1.08.3-1.64.34-1.09.07-2.18.08-3.25.02-.49-.03-.99-.07-1.41-.22-.83-.29-1.19-.95-1.18-1.6,0-.51.27-1.1.96-1.42,1.32-.62,4.13-.62,5.42-.33Z"/>
            <path class="cls-5" d="m394.16,80.1c.97,3.27,1.7,6.62,2.18,10,.12.87.22,1.8-.2,2.57-.6,1.09-1.98,1.44-3.21,1.62"/>
          </g>
          <path d="m391.94,98.32c-1.18-.24-2.29-.87-3.1-1.77-.17-.19-.16-.49.04-.66.19-.17.49-.16.66.04.88.98,2.19,1.57,3.51,1.57,1.32,0,2.63-.59,3.51-1.58.17-.19.46-.21.66-.04.19.17.21.47.04.66-1.05,1.18-2.62,1.89-4.2,1.89-.37,0-.74-.04-1.11-.11Z"/>
          <path d="m392.65,121.44c-14.69.23-19.07-5.47-19.07-5.47,8.72.97,16,.12,18.36-.22l.72,5.69Z"/>
          <path d="m361.6,103.68s-.04,0-.05,0c-.21,0-.37-.18-.36-.39.08-2.77-.71-5.58-2.23-7.9-.9-1.38-1.95-2.41-3.1-3.05-1.34-.74-2.84-.96-4.13-.58-.2.05-.41-.06-.46-.25-.06-.2.06-.41.25-.47,1.47-.43,3.19-.2,4.7.65,1.26.7,2.39,1.81,3.37,3.29,1.61,2.45,2.44,5.41,2.35,8.34,0,.19-.15.34-.33.36Z"/>
          <g>
            <path d="m384.28,88.08c.17,1.5-.9,2.85-2.4,3.02-1.5.17-2.85-.9-3.02-2.4-.17-1.5.9-2.85,2.4-3.02,1.5-.17,2.85.9,3.02,2.4Z"/>
            <path d="m404.48,85.77c.17,1.5-.9,2.85-2.4,3.02-1.5.17-2.85-.9-3.02-2.4-.17-1.5.9-2.85,2.4-3.02,1.5-.17,2.85.9,3.02,2.4Z"/>
          </g>
        </g>
        <path d="m350.13,94c.78-1.58,2.17-3.38,3.88-3.8,1.71-.42,3.6-.05,5.03.99,1.27.92,2.13,2.29,2.96,3.63,1.48.01,2.03-1.61,2.2-3.08.17-1.47,0-3.07.84-4.3.76-1.12,2.14-1.61,3.22-2.43,2.06-1.56,2.89-4.26,3.25-6.82,1.09-7.77-1.09-15.61-3.68-23.02-6.32,1.58-12.65,3.45-18.45,6.41-.7.36-1.41.74-1.93,1.33-.61.7-.88,1.63-1.07,2.53-.49,2.28-.59,4.63-.56,6.96.08,7,2.01,14.99,4.31,21.59Z"/>
        <path d="m348.37,66.04c-.92-3.01-.4-6.43,1.36-9.04,1.76-2.61,4.74-4.36,7.88-4.64.94-.08,1.94-.05,2.75-.54,1.15-.69,1.52-2.14,1.98-3.41,2.13-5.86,8.65-9.77,14.82-8.9.75.11,1.54.27,2.26.03.75-.26,1.27-.91,1.8-1.5,3.01-3.39,7.29-5.63,11.79-6.17,2.8-.34,5.93.09,7.86,2.15,2.04,2.18,2.14,5.48,2.11,8.46,1.9.4,3.88.84,5.34,2.1,1.68,1.46,2.37,3.79,2.4,6.01.06,5.14-3.27,10.16-8.03,12.09-4.76,1.93-10.65.66-14.18-3.07-1.73,5.03-6.42,8.91-11.68,9.69-5.26.78-10.87-1.59-13.98-5.91-3.11,1.54-6.4,3.01-9.51,4.55-.58-.47-1.41-.37-2.16-.4-.75-.03-2.59-.81-2.81-1.53Z"/>
        <path class="cls-10" d="m447.05,235.7l-62.28-12.6-74.02,12.6c.15-13.49,1.31-48.19,8.94-68.72,1.13-3.04,2.6-5.89,4.32-8.56.17-.29.36-.56.54-.83.17-.26.34-.5.51-.74.23-.34.47-.68.71-1.01.25-.34.5-.67.76-1s.51-.66.77-.99c.53-.65,1.06-1.29,1.61-1.91.27-.32.56-.63.83-.93.28-.31.56-.61.85-.92.28-.29.57-.59.85-.88.59-.59,1.17-1.16,1.77-1.73.88-.85,1.79-1.65,2.71-2.43.3-.26.61-.52.91-.77.02-.02.05-.05.08-.07.57-.47,1.14-.93,1.71-1.38.02-.02.04-.03.06-.05.55-.42,1.11-.84,1.65-1.25.07-.06.15-.11.22-.16.31-.22.62-.46.92-.67.31-.22.62-.45.94-.66.31-.23.62-.44.92-.65.3-.2.62-.41.92-.61,1.23-.83,2.43-1.59,3.61-2.3.3-.18.59-.35.88-.53,1.46-.86,2.87-1.64,4.18-2.34.26-.14.53-.29.78-.41.26-.14.52-.28.77-.4.25-.14.5-.26.74-.38.3-.15.6-.3.89-.44,1.72-.85,3.22-1.52,4.41-2.04.15-.06.28-.13.43-.18.1-.04.2-.09.3-.13.17-.07.34-.14.49-.2.22-.09.43-.18.6-.25.07-.03.15-.06.21-.08.11-.04.21-.08.29-.11.15-.06.27-.11.36-.14.08-.03.14-.05.18-.07,0,0,.02-.01.03-.01h0l28.61,21.05,1.73-21.65h0s.02,0,.03,0c.02,0,.04.01.07.02.06.02.13.04.22.07.2.05.47.14.82.25.22.08.45.14.71.23.16.05.33.11.5.17.24.08.5.16.77.25.5.16,1.05.35,1.65.56.63.22,1.32.47,2.05.73,1.84.67,3.96,1.49,6.26,2.44.28.12.57.24.87.36.07.02.14.06.21.09l.06.03c.49.23.97.46,1.46.7.35.17.7.34,1.06.52,1.13.56,2.28,1.17,3.43,1.83.58.33,1.15.67,1.73,1.02.55.33,1.11.68,1.66,1.03.02.02.04.03.06.04,1.13.73,2.25,1.51,3.34,2.33.1.07.19.14.28.21.46.35.92.71,1.37,1.07l.05.05c.41.33.83.68,1.23,1.03.86.75,1.68,1.52,2.48,2.33.52.52,1.02,1.06,1.51,1.61.02.02.03.03.04.05.5.56.98,1.14,1.44,1.74.17.22.33.44.5.66.15.2.3.41.44.62.13.18.26.37.39.56.21.31.41.62.6.94.2.32.4.64.58.97.19.32.37.66.54.99.12.22.23.45.34.67.39.79.74,1.61,1.05,2.44,8.73,23.36,12.4,64.1,13.49,78.91Z"/>
        <path class="cls-11" d="m447.05,235.7h-136.3c.15-13.49,1.31-48.19,8.94-68.72,1.13-3.04,2.6-5.89,4.32-8.56.17-.29.36-.56.54-.83.17-.26.34-.5.51-.74.23-.34.47-.68.71-1.01.25-.34.5-.67.76-1s.51-.66.77-.99c.53-.65,1.06-1.29,1.61-1.91.27-.32.56-.63.83-.93.28-.31.56-.61.85-.92.28-.29.57-.59.85-.88.59-.59,1.17-1.16,1.77-1.73.88-.85,1.79-1.65,2.71-2.43.3-.26.61-.52.91-.77.02-.02.05-.05.08-.07.57-.47,1.14-.93,1.71-1.38.02-.02.04-.03.06-.05.55-.42,1.11-.84,1.65-1.25.07-.06.15-.11.22-.16.31-.22.62-.46.92-.67.31-.22.62-.45.94-.66.31-.23.62-.44.92-.65.3-.2.62-.41.92-.61,1.23-.83,2.43-1.59,3.61-2.3.3-.18.59-.35.88-.53,1.46-.86,2.87-1.64,4.18-2.34.26-.14.53-.29.78-.41.26-.14.52-.28.77-.4.25-.14.5-.26.74-.38.3-.15.6-.3.89-.44,1.72-.85,3.22-1.52,4.41-2.04.15-.06.28-.13.43-.18.1-.04.2-.09.3-.13.17-.07.34-.14.49-.2.22-.09.43-.18.6-.25.07-.03.15-.06.21-.08.11-.04.21-.08.29-.11,3.49,2.58,27.47,20.81,35.84,41.93.11.26.22.53.31.8l-.19-1.65h0s-5.02-41.71-5.02-41.71l-.02-.19h0s.02,0,.03,0c.02,0,.04.01.07.02.42.1,2.06.54,4.47,1.34.64.21,1.33.45,2.07.72,2.13.77,4.63,1.76,7.31,3,.07.02.14.06.21.09l.06.03c.49.23.97.46,1.46.7.35.17.7.34,1.06.52,1.13.57,2.28,1.18,3.43,1.83.58.33,1.15.67,1.73,1.02.55.33,1.11.68,1.66,1.03.02.02.04.03.06.04,1.13.74,2.25,1.51,3.34,2.33.1.07.19.14.28.21.46.35.92.71,1.37,1.07l.05.05c.41.33.83.68,1.23,1.03.86.75,1.68,1.52,2.48,2.33.52.52,1.02,1.06,1.51,1.61.02.02.03.03.04.05.5.56.98,1.14,1.44,1.74.17.22.33.44.5.66.15.2.3.41.44.62.13.18.26.37.39.56.21.31.41.62.6.94.2.32.4.64.58.97.19.32.37.66.54.99.12.22.23.45.34.67.39.79.74,1.61,1.05,2.44,8.73,23.36,12.4,64.1,13.49,78.91Z"/>
        <g>
          <path d="m405.95,235.7h-.98c-.45-18.64-1.65-41.47-4.72-52.41-5.57-19.87-41.29-25.72-41.65-25.77-.18-.03-.33-.16-.39-.32-.06-.18-.02-.36.11-.5l8.92-9.63-9.25-2.76-.94-.28-13.19-3.94c-.26-.08-.41-.36-.33-.61.08-.26.35-.41.6-.33l13.07,3.9.94.28,10.13,3.03c.16.05.28.19.33.34.04.17,0,.34-.12.46l-8.83,9.54c5.1.93,29.55,6.01,38.78,20.29.32.5.62,1,.91,1.52.77,1.42,1.4,2.92,1.85,4.52,2.02,7.21,3.24,19.53,3.97,32.43v.03c.03.47.06.94.08,1.41.34,6.34.57,12.79.71,18.8Z"/>
          <path d="m420.12,147.11c-.02.21-.17.39-.37.44-.22.06-21.97,5.69-20.29,30.6,0,.15-.04.27-.13.36s-.19.15-.32.16h-.04c-.25,0-.47-.19-.48-.45-.03-.42-.05-.83-.07-1.23-.09-2.17,0-4.19.24-6.07.04-.29.08-.57.12-.85h0c2.4-15.74,15.08-21.51,19.33-23.03l-18.32-6.72c-.18-.06-.3-.22-.31-.42-.02-.19.08-.37.25-.46l9.7-5.36c.35.17.7.34,1.06.52l-9.35,5.17,18.65,6.85c.2.08.33.27.32.49Z"/>
          <path d="m351.12,235.7h-.98l-.16-53.78c0-.27.21-.5.49-.5.26,0,.48.23.48.49l.17,53.79Z"/>
          <path d="m430.63,235.7h-.97l-1.51-18.57-.55-6.75-2.73-33.65c-.02-.27.17-.5.44-.53.27-.01.51.18.53.45l2.77,34.15.46,5.75,1.56,19.15Z"/>
        </g>
        <path class="cls-5" d="m405.2,179.68h16.92s.5,25.13-7.71,23.39-9.21-23.39-9.21-23.39Z"/>
        <g>
          <path d="m413.2,167.44c.03.25-.15.49-.4.52,0,0-.02,0-.03,0-.02,0-.04,0-.05,0-.24,0-.44-.17-.48-.41,0,0,0-.02,0-.03,0-.08-.02-.15-.02-.22-.02-.17-.04-.33-.06-.5-.8-7.52-1.85-15.45-4.66-22.84-2.18-5.76-6.39-13.56-14.15-18.27l-.18-1.08c.12-.03.24-.02.36.05,8.19,4.83,12.61,12.98,14.88,18.95,2.88,7.61,3.94,15.72,4.74,23.4,0,.05.02.1.02.15,0,.09.02.19.03.27Z"/>
          <g>
            <g>
              <path class="cls-18" d="m425.68,214.35s-.03,0-.04,0c-8.02-.67-15.56-6.84-19.21-15.72-3.5-8.52-3.13-18.08.98-25.59,1.45-2.64,3.18-4.65,5.13-5.96.22-.15.53-.09.68.13.15.22.09.53-.13.68-1.83,1.22-3.45,3.11-4.82,5.61-3.98,7.25-4.33,16.51-.94,24.75,3.51,8.54,10.73,14.48,18.39,15.12.27.02.47.26.44.53-.02.25-.23.45-.48.45Z"/>
              <path class="cls-18" d="m410.33,216.46c-.1,0-.21-.03-.29-.1-.21-.16-.26-.47-.09-.68,7.58-9.98,10.91-23.33,8.88-35.7-.98-6.02-3.2-10.2-6.58-12.41-.23-.15-.29-.45-.14-.67.15-.22.45-.29.67-.14,3.62,2.37,5.98,6.77,7.01,13.07,2.06,12.63-1.33,26.26-9.07,36.45-.1.13-.24.19-.39.19Z"/>
            </g>
            <path d="m412.25,216c0,1.97-1.6,3.57-3.57,3.57s-3.57-1.6-3.57-3.57,1.6-3.57,3.57-3.57,3.57,1.6,3.57,3.57Z"/>
            <path d="m430.33,213.84c0,1.97-1.6,3.57-3.57,3.57s-3.57-1.6-3.57-3.57,1.6-3.57,3.57-3.57,3.57,1.6,3.57,3.57Z"/>
          </g>
          <g>
            <path d="m361.94,186.24c.17.66.33,1.33.5,1.99.05.19-.03.4-.18.51-.05.04-.11.07-.18.09-.04,0-.09,0-.13,0s-.08,0-.12-.02c-.17-.04-.3-.17-.35-.34-.18-.67-.34-1.35-.51-2.04-2.39-9.57-4.52-19.76-4.74-29.95-.25-11.66,2.12-22.24,6.9-30.65l.15,1.75c-4.22,8.04-6.31,17.97-6.07,28.87.2,10.11,2.34,20.24,4.72,29.77Z"/>
            <g>
              <circle cx="363.38" cy="195.5" r="9.37" transform="translate(112.35 522.99) rotate(-80.81)"/>
              <path class="cls-11" d="m363.38,188.63c-.38,0-.75.03-1.11.1-.15.02-.29.04-.42.08-3.06.69-5.34,3.43-5.34,6.69,0,3.79,3.08,6.87,6.87,6.87s6.87-3.08,6.87-6.87-3.08-6.87-6.87-6.87Zm0,12.77c-3.26,0-5.9-2.64-5.9-5.9s2.64-5.89,5.9-5.89,5.89,2.64,5.89,5.89-2.64,5.9-5.89,5.9Z"/>
            </g>
          </g>
        </g>
      </g>
      <g>
        <line class="cls-6" x1="319.07" y1="72.8" x2="319.07" y2="98.34"/>
        <line class="cls-6" x1="326.49" y1="77.92" x2="310.95" y2="93.85"/>
        <line class="cls-6" x1="331.84" y1="85.57" x2="306.3" y2="85.57"/>
        <line class="cls-6" x1="327.08" y1="93.36" x2="310.95" y2="78.01"/>
      </g>
      <g>
        <line class="cls-6" x1="452.34" y1="145.14" x2="452.34" y2="170.68"/>
        <line class="cls-6" x1="459.77" y1="150.26" x2="444.23" y2="166.19"/>
        <line class="cls-6" x1="465.11" y1="157.91" x2="439.57" y2="157.91"/>
        <line class="cls-6" x1="460.36" y1="165.7" x2="444.23" y2="150.35"/>
      </g>
      <g>
        <g>
          <g>
            <rect class="cls-11" x="452.76" y="109.24" width="3.02" height="10.69" transform="translate(-3.35 214.95) rotate(-26.53)"/>
            <path class="cls-11" d="m450.62,124.25c-.43-.11-.81-.4-1.02-.84-.35-.76-.02-1.66.74-2l12.12-5.58c.76-.35,1.66-.02,2,.74.35.76.02,1.66-.74,2l-12.12,5.58c-.32.15-.67.17-.99.1Z"/>
          </g>
          <path d="m429.15,61.07c-.11.14-.24.22-.38.22-.19-.01-.38-.15-.5-.43l-.67-1.5-.44-.98-2.9-6.51h1.57l2.4,5.36.72,1.61.35.79c.2.46.14,1.09-.15,1.44Z"/>
          <path class="cls-11" d="m445.43,115.54l-22.18-48.03c-.48-1.04,0-2.28,1.07-2.71l11.03-4.5c1-.41,2.14.04,2.59,1.02l22.43,48.24-14.95,5.98Z"/>
          <polygon class="cls-17" points="457.59 107.18 436.02 62.57 425.5 66.4 446.25 112.5 457.59 107.18"/>
          <g>
            <polygon class="cls-11" points="436.02 62.57 425.24 65.72 424.73 64.56 423.96 62.83 423.19 61.08 433.08 57.23 434.83 60.41 434.87 60.49 436.02 62.57"/>
            <polygon points="434.87 60.49 424.73 64.56 423.96 62.83 434.83 60.41 434.87 60.49"/>
          </g>
          <g>
            <path d="m427.79,73.6c-.15-.04-.29-.14-.36-.29-.13-.27-.02-.6.25-.73l3.77-1.83c.27-.13.6-.02.73.26.13.27.02.6-.25.73l-3.77,1.83c-.12.06-.25.07-.37.04Z"/>
            <path d="m429.58,78.08c-.15-.04-.29-.14-.36-.29-.13-.27-.02-.6.25-.74l4.11-2.03c.27-.13.6-.02.74.25.13.27.02.6-.25.74l-4.11,2.03c-.12.06-.25.07-.37.04Z"/>
            <path d="m431.75,81.64c-.15-.04-.28-.14-.36-.28-.14-.27-.03-.6.24-.74l3.63-1.86c.27-.14.6-.03.74.24.14.27.03.6-.24.74l-3.63,1.86c-.12.06-.26.07-.38.04Z"/>
          </g>
        </g>
        <g>
          <g>
            <rect class="cls-11" x="302.53" y="151.64" width="10.69" height="3.02" transform="translate(111.46 435.4) rotate(-81.61)"/>
            <path class="cls-11" d="m316.39,147.32c.29.33.44.79.35,1.27-.15.82-.93,1.37-1.75,1.22l-13.13-2.36c-.82-.15-1.37-.93-1.22-1.75.15-.82.93-1.37,1.75-1.22l13.13,2.36c.35.06.65.24.87.49Z"/>
          </g>
          <path d="m297.84,211.42c.18-.05.33-.04.44.04.15.11.22.34.16.63l-.51,2.67-2.28,11.84c-.47-.06-.94-.13-1.42-.2l2.17-11.3.49-2.58c.09-.49.51-.98.94-1.1Z"/>
          <path class="cls-11" d="m315.66,157.44l-9.3,52.08c-.2,1.13-1.31,1.86-2.43,1.61l-11.63-2.62c-1.05-.24-1.73-1.26-1.54-2.31l9.22-52.4,15.68,3.65Z"/>
          <polygon class="cls-17" points="300.91 157.33 293.06 206.26 303.89 209.13 313.26 159.46 300.91 157.33"/>
          <g>
            <polygon class="cls-11" points="293.06 206.26 303.71 209.85 303.47 211.09 303.1 212.95 302.73 214.83 292.42 212.32 292.81 208.71 292.82 208.63 293.06 206.26"/>
            <polygon points="292.82 208.63 303.47 211.09 303.1 212.95 292.81 208.71 292.82 208.63"/>
          </g>
          <g>
            <path d="m306.13,201.92c.1.12.16.28.13.45-.05.3-.33.5-.63.46l-4.14-.66c-.3-.05-.5-.33-.46-.63.05-.3.33-.5.63-.46l4.14.66c.13.02.24.09.33.18Z"/>
            <path d="m307.22,197.22c.1.12.16.28.13.45-.05.3-.33.51-.63.46l-4.53-.69c-.3-.05-.51-.33-.46-.63.05-.3.33-.51.63-.46l4.53.69c.13.02.25.09.33.18Z"/>
            <path d="m307.49,193.06c.1.12.15.27.13.44-.04.3-.32.51-.62.47l-4.04-.56c-.3-.04-.51-.32-.47-.62.04-.3.32-.51.62-.47l4.04.56c.14.02.25.09.34.18Z"/>
          </g>
        </g>
      </g>
    </g>
  </g>
  <g>
    <path class="cls-9" d="m66.54,472.17c-9.3,0-16.86-7.56-16.86-16.86v-112.18l-17.27-46.54c-1.13-3.05-.99-6.5.39-9.45l2.52-5.39c.13-.65.36-1.29.7-1.87.9-1.55,2.44-2.62,4.21-2.91l79.66-13.14c.33-.05.66-.08.98-.08,2.42,0,4.65,1.47,5.57,3.78l3.51,8.82h98.71c9.29,0,16.85,7.56,16.85,16.85v162.12c0,5.27-2.42,10.15-6.63,13.4-.03.03-.07.05-.1.08-.54.4-1.05.74-1.55,1.04-2.58,1.54-5.54,2.35-8.56,2.35H66.54Z"/>
    <g>
      <path class="cls-12" d="m239.77,293.19v162.12c0,3.51-1.69,6.64-4.29,8.64-.34.25-.69.49-1.06.71-1.61.96-3.49,1.51-5.5,1.51H66.8c-5.97,0-10.86-4.89-10.86-10.86v-162.12c0-5.97,4.89-10.85,10.86-10.85h162.12c5.97,0,10.85,4.88,10.85,10.85Z"/>
      <g>
        <g>
          <g>
            <path d="m172.14,417.16l-55.1-138.25-68.3,11.27-7.08-7.29-3.17,6.79c-.71,1.52-.78,3.25-.2,4.82l61.65,166.18c.88,2.37,3.46,3.63,5.87,2.87l73.35-23.1c1.28-.4,2.33-1.34,2.87-2.56l3.22-7.23-13.11-13.49Z"/>
            <polygon class="cls-10" points="41.47 282.88 105.59 455.74 185.25 430.65 121.12 269.74 41.47 282.88"/>
            <polygon class="cls-11" points="46.25 288.19 74.01 363.04 115.94 443.44 167.26 424.55 146.27 340.32 120.61 275.92 46.25 288.19"/>
            <polygon class="cls-10" points="64.27 283.18 72.03 287.37 101.61 281.69 105.79 274.82 64.27 283.18"/>
            <g>
              <path class="cls-2" d="m42.12,297.3h0c-.17.44-.17.94,0,1.38l6.35,16.88c.37.99,1.43,1.32,2.15.67h0c.52-.46.69-1.29.43-1.99l-6.35-16.88c-.49-1.32-2.07-1.34-2.57-.04Z"/>
              <path class="cls-2" d="m50.98,322.36h0c-.17.44-.17.94,0,1.38l6.35,16.88c.37.99,1.43,1.32,2.15.67h0c.52-.46.69-1.29.43-1.99l-6.35-16.88c-.49-1.32-2.07-1.34-2.57-.04Z"/>
            </g>
          </g>
          <g>
            <g>
              <path class="cls-9" d="m118.58,338.29s.34-.11.94-.3c3.99-1.21,18.48-4.56,26.54,1.53l34.67,87.14-74.34,24.57-32.63-88.58s6.61-6.81,13.22-11.36l31.59-13.01Z"/>
              <g>
                <path class="cls-13" d="m106.32,298.82c1.53,2.51,2.72,5.24,3.78,7.84,1.25,3.05,2.42,6.14,3.76,9.15.85,1.93.95,4.09.28,6.07-.75,2.22-2.41,4.04-4.58,5.07l-3.41,1.69.04.07,1.81,3.44.67,1.27,1.65,2.74-4.12,8.95-15.71-1.71-6.12-12.7c-5.31,1.74-10.97-1.26-10.78-6.38.12-3.35,2.9-4.1,5.18-4.15-1.79-1.49-3.29-3.33-4.4-5.5-4.42-8.64-.72-19.1,8.27-23.35,4.7-2.22,10.27-2.55,15.1-.51,3.83,1.62,6.52,4.6,8.6,8Z"/>
                <g>
                  <path d="m88.34,308.28c-.49.58-.72,1.26-.45,1.71.11.18.29.32.53.4.2.07.44.1.7.04.37-.07.72-.29,1.05-.5.63-.41,1.24-.86,1.8-1.34.26-.22.52-.45.68-.7.33-.5.24-.99-.04-1.33-.22-.27-.62-.47-1.14-.35-1,.22-2.54,1.38-3.12,2.07Z"/>
                  <path d="m103.68,300.82c.77-.09,1.49.09,1.74.54.1.18.13.41.07.64-.05.2-.15.41-.34.59-.26.26-.64.43-1,.59-.7.29-1.42.54-2.13.75-.33.09-.67.18-.98.18-.61,0-1-.33-1.15-.74-.11-.33-.08-.75.3-1.12.72-.69,2.57-1.33,3.49-1.43Z"/>
                </g>
                <path d="m102.09,317.68c-.84.11-1.71-.03-2.45-.42-.16-.08-.22-.27-.13-.43.09-.15.28-.21.44-.13.81.42,1.81.5,2.68.2.87-.3,1.59-.97,1.94-1.79.07-.16.26-.24.42-.17.17.06.25.25.18.41-.41.99-1.28,1.79-2.32,2.15-.24.08-.5.14-.76.18Z"/>
                <path d="m107.99,332.14c-9.61,3.46-13.83.85-13.83.85,5.96-1.36,10.55-3.54,12.02-4.29l1.81,3.44Z"/>
                <path d="m83.39,327.93s-.02.01-.04.01c-.14.04-.29-.03-.33-.16-.6-1.77-1.78-3.37-3.33-4.5-.92-.67-1.85-1.08-2.76-1.23-1.05-.17-2.09.03-2.85.57-.12.08-.28.06-.37-.06-.09-.11-.06-.27.06-.35.87-.61,2.05-.85,3.24-.65.99.16,2,.6,2.99,1.32,1.63,1.19,2.88,2.87,3.51,4.74.04.12-.02.25-.13.3Z"/>
                <g>
                  <path d="m94.64,312.93c.46.91.08,2.01-.87,2.45-.94.45-2.09.07-2.55-.84-.46-.91-.08-2.01.87-2.45.94-.45,2.09-.07,2.55.84Z"/>
                  <path d="m106.61,307.05c.46.91.08,2.01-.87,2.45-.94.45-2.09.07-2.55-.84-.46-.91-.08-2.01.87-2.45.94-.45,2.09-.07,2.55.84Z"/>
                </g>
              </g>
              <path d="m73.97,322.49c.06-.43.47-.71.85-.91,2.35-1.23,5.34-1.16,7.63.17-.07-1.4-.69-2.98-1.35-4.22,1.49-.4,2.49-1.98,3.31-3.29,3.17-5.11,5.08-11.38,3.49-17.18-.75-2.73-2.22-5.19-3.77-7.55-4.28,1.99-8.21,4.31-11.85,7.33-1.53,1.27-3.02,2.66-3.94,4.43-1.71,3.29-1.14,7.33.25,10.76,1.39,3.43,3.9,7.06,5.38,10.46Z"/>
              <path d="m79.3,292.83c4.16-4.41,10.27-6.91,16.33-6.66,1.37.06,2.75.25,4.03.74,2.59.98,4.58,3.06,6.39,5.15-.02.7-.73,1.27-1.34,1.61-3.08,1.78-6.49,3-10,3.58-2.78.46-5.65.52-8.39-.14-2.74-.66-5.22-2.13-7.03-4.28Z"/>
              <path class="cls-10" d="m123.53,389.71c-.18-.2-.37-.41-.57-.61l-34.85-36.97-.83-.89-.05-.05-.25-.26.37-.59,1.12-1.8.98-1.58-.3-5.94.2.05,14.55,3.25.73.16h1.03l.27-.99,2.73-10.07,5.99,4.67,3.26.16.67.04.02.25,4.73,49.06.2,2.12Z"/>
              <polyline class="cls-3" points="89.62 347.53 102.47 362.55 105.67 344.49 118.42 353.57 114.65 338.09"/>
              <path class="cls-3" d="m76.76,358.99l11.46,1.39-5.88,12.54s32.06,6.45,41.19,16.78c9.14,10.32,22.15,46.41,22.15,46.41"/>
              <path class="cls-3" d="m133.29,335.92l-8.52,13.63,11,3.25s-17.5,20.91-10.53,38.72"/>
              <line class="cls-3" x1="105.67" y1="344.49" x2="124.36" y2="390.12"/>
              <path class="cls-3" d="m136.75,380.83l15.49-5.99s9.91,17.55,2.06,20.86c-7.85,3.3-17.55-14.87-17.55-14.87Z"/>
            </g>
            <g>
              <path d="m117.92,338.25c.13.05.26.09.37.15.11.04.21.08.32.13,3.63,1.52,6.72,3.74,9.23,6.1,1.73,1.59,3.21,3.25,4.4,4.76.77.97,1.51,1.98,2.2,3.01.26.37.5.75.75,1.13,3.03,4.69,5.38,9.78,7.52,14.71h0c.07.15.13.28.2.42.02.07.05.13.08.19,0,.01,0,.02.01.02.11.21.32.29.54.23,0-.01.02-.01.04-.02.01-.01.02-.01.02-.02.22-.09.3-.35.21-.56-.04-.08-.07-.16-.11-.23-.01-.05-.04-.08-.06-.13-2.84-6.54-6.04-13.41-10.69-19.3-1.25-1.58-2.8-3.31-4.62-4.98-2.41-2.22-5.33-4.34-8.74-5.87l-1.67.28Z"/>
              <g>
                <g>
                  <path class="cls-18" d="m167.89,406.39s-.02,0-.04,0c-7.26,1.64-15.63-1.7-21.33-8.51-5.46-6.53-7.81-15.07-6.27-22.85.54-2.74,1.51-4.98,2.87-6.68.16-.2.44-.23.63-.07.19.16.23.44.07.63-1.27,1.59-2.17,3.7-2.69,6.3-1.49,7.51.79,15.77,6.08,22.09,5.48,6.56,13.5,9.78,20.44,8.21.24-.06.48.1.54.34.05.23-.08.46-.3.53Z"/>
                  <path class="cls-18" d="m154.94,412.53c-.09.03-.19.03-.29,0-.23-.08-.36-.34-.27-.58,3.9-10.92,3.11-23.62-2.12-33.97-2.55-5.04-5.66-8.1-9.26-9.11-.24-.07-.38-.32-.31-.56.07-.24.32-.38.56-.31,3.86,1.08,7.16,4.3,9.83,9.57,5.34,10.57,6.15,23.53,2.16,34.68-.05.14-.16.24-.29.28Z"/>
                </g>
                <path d="m156.51,411.59c.55,1.74-.41,3.59-2.15,4.14-1.74.55-3.59-.41-4.14-2.15-.55-1.74.41-3.59,2.15-4.14s3.59.41,4.14,2.15Z"/>
                <path d="m170.32,404.64c.55,1.74-.41,3.59-2.15,4.14-1.74.55-3.59-.41-4.14-2.15-.55-1.74.41-3.59,2.15-4.14,1.74-.55,3.59.41,4.14,2.15Z"/>
              </g>
              <g>
                <path d="m104.82,401.48s-.08.09-.13.13c-.04.01-.08.04-.12.04-.03.01-.07.02-.11.02-.16.01-.32-.07-.41-.21-.34-.54-.68-1.1-1.01-1.65-4.74-7.73-9.44-16.06-12.47-24.92-.02-.06-.04-.12-.06-.18-1.47-4.35-2.48-8.66-3-12.85-.08-.53-.14-1.05-.18-1.58-.3-3.1-.34-6.12-.08-9.04-.01-.02-.01-.03,0-.06.02-.28.05-.55.08-.83l1.12-1.8c-.12.74-.21,1.49-.28,2.25-.04.44-.07.89-.09,1.33-.46,7,.64,14.58,3.28,22.3.08.25.16.49.26.74,3.01,8.59,7.58,16.67,12.2,24.21.33.54.67,1.08.99,1.61.09.15.08.35-.01.49Z"/>
                <g>
                  <path d="m115.95,404.53c1.44,4.56-1.09,9.44-5.65,10.88-4.56,1.44-9.44-1.09-10.88-5.65-1.44-4.56,1.09-9.44,5.65-10.88,4.56-1.44,9.44,1.09,10.88,5.65Z"/>
                  <path class="cls-11" d="m113.75,405.22c-1.06-3.35-4.63-5.21-7.98-4.14-.33.11-.66.23-.95.4-.13.06-.25.12-.35.19-2.5,1.46-3.76,4.52-2.84,7.38,1.05,3.35,4.63,5.21,7.98,4.15,3.33-1.06,5.19-4.63,4.14-7.98Zm-4.41,7.11c-2.88.91-5.94-.68-6.86-3.56-.9-2.87.69-5.93,3.57-6.83,2.87-.91,5.92.68,6.83,3.54.91,2.88-.68,5.94-3.54,6.84Z"/>
                </g>
              </g>
            </g>
          </g>
        </g>
        <g>
          <path class="cls-9" d="m234.06,294.17h-84.77c-1.22,0-2.21.99-2.21,2.21v28.26c0,1.22.99,2.21,2.21,2.21h4.62l-10.24,11.57,18.19-11.57h72.19c1.22,0,2.21-.99,2.21-2.21v-28.26c0-1.22-.99-2.21-2.21-2.21Z"/>
          <g>
            <line class="cls-3" x1="185.38" y1="302.51" x2="229.81" y2="302.51"/>
            <line class="cls-3" x1="185.38" y1="306.25" x2="229.81" y2="306.25"/>
            <line class="cls-3" x1="185.38" y1="310" x2="229.81" y2="310"/>
            <line class="cls-3" x1="185.38" y1="313.74" x2="229.81" y2="313.74"/>
            <line class="cls-3" x1="185.38" y1="317.49" x2="229.81" y2="317.49"/>
            <line class="cls-3" x1="185.38" y1="321.23" x2="229.81" y2="321.23"/>
          </g>
          <g>
            <rect class="cls-15" x="164.01" y="300.35" width="4.79" height="21.17" transform="translate(5.38 -2.82) rotate(.99)"/>
            <rect class="cls-15" x="164.01" y="300.35" width="4.79" height="21.17" transform="translate(480.16 149.91) rotate(90.99)"/>
          </g>
        </g>
        <g>
          <path class="cls-15" d="m204.35,370.29s-14.88-15.58-25.5-6.86c-22.26,18.28,25.19,52.56,25.19,52.56,0,0,51.83-36.2,24.77-53.4-11.26-7.16-24.46,7.71-24.46,7.71Z"/>
          <path class="cls-8" d="m176.07,391.2l4.62-7.39,4.02,7.95,7.16-16.67s2.83,28.98,2.98,28.41c.15-.57,4.17-20.08,4.17-20.08l1.49,7.58h13.42l4.62-17.8,2.09,26.7,1.19-11.17h15.8"/>
        </g>
        <g>
          <g>
            <line class="cls-6" x1="192.36" y1="331.86" x2="192.36" y2="357.41"/>
            <line class="cls-6" x1="199.79" y1="336.98" x2="184.25" y2="352.91"/>
            <line class="cls-6" x1="205.13" y1="344.64" x2="179.59" y2="344.64"/>
            <line class="cls-6" x1="200.38" y1="352.42" x2="184.25" y2="337.08"/>
          </g>
          <g>
            <line class="cls-6" x1="222.32" y1="429.57" x2="222.32" y2="455.11"/>
            <line class="cls-6" x1="229.75" y1="434.68" x2="214.21" y2="450.61"/>
            <line class="cls-6" x1="235.09" y1="442.34" x2="209.55" y2="442.34"/>
            <line class="cls-6" x1="230.33" y1="450.12" x2="214.21" y2="434.78"/>
          </g>
          <g>
            <line class="cls-6" x1="75.26" y1="429.57" x2="75.26" y2="455.11"/>
            <line class="cls-6" x1="82.68" y1="434.68" x2="67.14" y2="450.61"/>
            <line class="cls-6" x1="88.03" y1="442.34" x2="62.48" y2="442.34"/>
            <line class="cls-6" x1="83.27" y1="450.12" x2="67.14" y2="434.78"/>
          </g>
        </g>
      </g>
    </g>
  </g>
  <g>
    <path class="cls-9" d="m296.39,469.7c-9.3,0-16.86-7.56-16.86-16.86v-162.12c0-9.29,7.56-16.85,16.86-16.85h162.12c9.29,0,16.85,7.56,16.85,16.85v162.12c0,5.27-2.42,10.15-6.63,13.4-.04.03-.07.05-.11.08-.54.4-1.05.74-1.55,1.03-2.57,1.54-5.54,2.35-8.56,2.35h-162.12Z"/>
    <g>
      <path class="cls-10" d="m469.87,290.72v162.12c0,3.51-1.69,6.64-4.29,8.64-.34.25-.69.49-1.06.71-1.61.96-3.49,1.51-5.5,1.51h-3.96l-66.38-17.62-85.53,17.62h-6.25c-5.97,0-10.86-4.89-10.86-10.86v-162.12c0-5.97,4.89-10.85,10.86-10.85h162.12c5.97,0,10.85,4.88,10.85,10.85Z"/>
      <g>
        <path class="cls-18" d="m296.32,461.05c-4.05-4.13-7.51-8.65-10.28-13.38v1.94c2.66,4.28,5.87,8.36,9.57,12.14.65.66,1.31,1.31,1.98,1.95h1.46c-.94-.87-1.85-1.75-2.73-2.65Zm52.91-181.18h-1.02c3.02,18.71-3.55,38.76-17.71,51.64-3.13,2.84-6.45,5.12-9.82,6.78-.02-.08-.04-.16-.07-.24-1.15-3.95-4.15-7.34-8.25-9.3-4.09-1.95-8.62-2.16-12.42-.58-1.78.75-3.01,1.69-3.75,2.89-1.44,2.3-.9,5.72,1.25,7.94,1.69,1.76,4.21,2.86,7.48,3.29,5.54.72,10.68-.53,15.07-2.53.84,4.6-.48,9.93-3.71,14.86-2.69,4.11-6.34,7.59-9.87,10.95-.65.63-1.31,1.25-1.95,1.88-7.75,7.5-13.92,15.18-18.42,22.87v2.04c4.51-8.13,10.91-16.25,19.11-24.19.65-.63,1.3-1.25,1.95-1.87,3.57-3.41,7.26-6.93,10.02-11.13,3.43-5.24,4.78-10.93,3.8-15.85,4.35-2.13,7.9-4.93,10.25-7.07,14.37-13.07,21.06-33.39,18.06-52.38Zm-44.18,61.43c-3.04-.4-5.36-1.41-6.89-2.99-1.56-1.62-2.49-4.53-1.13-6.72.64-1.01,1.72-1.83,3.3-2.49,1.56-.66,3.26-.98,5.01-.98,2.19,0,4.45.51,6.59,1.54,3.84,1.83,6.65,4.99,7.72,8.67.04.13.08.26.11.4-4.97,2.27-10.02,3.18-14.71,2.57Z"/>
        <path class="cls-18" d="m459.4,345.39c-4.25-7-6.69-15.57-7.67-26.94-.11-1.28-.2-2.52-.26-3.72,2.37-1.05,4.59-2.34,6.54-3.81,2.92-2.2,7.73-6.76,7.22-12.58-.25-2.81-2.46-5.52-5.39-6.59-2.27-.82-4.43-.44-5.92,1.05-1.3,1.3-1.84,3.1-2.24,4.85-1.1,4.88-1.51,10.18-1.24,16.44-8.19,3.41-18.2,3.77-25.81-1.79-5.36-3.91-9.2-10.39-11.72-19.82-1.1-4.12-1.89-8.34-2.35-12.61h-1c.46,4.36,1.26,8.67,2.38,12.87,2.59,9.66,6.55,16.32,12.1,20.37,7.82,5.71,18.03,5.43,26.45,2.03.06,1.1.14,2.23.24,3.39,1,11.54,3.48,20.24,7.82,27.38,3.03,4.99,7.04,9.24,11.32,13.19v-1.37c-3.97-3.71-7.66-7.71-10.47-12.34Zm-6.74-47.51c.36-1.61.85-3.26,1.97-4.37.78-.78,1.8-1.18,2.93-1.18.62,0,1.27.12,1.94.36,2.53.92,4.52,3.34,4.74,5.74.47,5.34-4.08,9.61-6.83,11.69-1.8,1.36-3.82,2.55-5.99,3.54-.23-6,.17-11.09,1.24-15.78Z"/>
      </g>
      <g>
        <path d="m355.23,337.34s-.05,0-.07,0c-.29-.04-.5-.31-.46-.6l3.06-22.21c.04-.29.31-.5.6-.46.29.04.5.31.46.6l-3.06,22.21c-.04.27-.27.46-.53.46Z"/>
        <g>
          <g>
            <rect class="cls-11" x="347.81" y="359.5" width="5.67" height="1.6" transform="translate(-56.94 654.65) rotate(-81.61)"/>
            <path class="cls-11" d="m346.12,363.39c-.16-.18-.23-.42-.19-.67.08-.44.5-.73.93-.65l6.97,1.25c.44.08.73.49.65.93-.08.44-.5.73-.93.65l-6.97-1.25c-.19-.03-.34-.13-.46-.26Z"/>
          </g>
          <path class="cls-11" d="m346.51,358.03l4.94-27.65c.11-.6.69-.99,1.29-.86l6.17,1.39c.56.13.92.67.82,1.23l-4.89,27.82-8.32-1.94Z"/>
          <polygon class="cls-17" points="354.34 358.08 358.5 332.11 352.76 330.58 347.78 356.95 354.34 358.08"/>
          <g>
            <polygon class="cls-11" points="358.5 332.11 352.85 330.2 352.98 329.54 353.18 328.56 353.37 327.56 358.84 328.89 358.64 330.8 358.63 330.85 358.5 332.11"/>
            <polygon points="358.63 330.85 352.98 329.54 353.18 328.56 358.64 330.8 358.63 330.85"/>
          </g>
          <g>
            <path d="m351.57,334.41c-.06-.06-.08-.15-.07-.24.03-.16.17-.27.33-.24l2.2.35c.16.03.27.18.24.33-.03.16-.17.27-.33.24l-2.2-.35c-.07-.01-.13-.05-.17-.1Z"/>
            <path d="m350.99,336.91c-.06-.06-.08-.15-.07-.24.02-.16.17-.27.33-.25l2.41.36c.16.02.27.17.24.33-.02.16-.17.27-.33.25l-2.41-.36c-.07-.01-.13-.05-.18-.1Z"/>
            <path d="m350.85,339.11c-.05-.06-.08-.15-.07-.23.02-.16.17-.27.33-.25l2.15.29c.16.02.27.17.25.33-.02.16-.17.27-.33.25l-2.15-.3c-.07,0-.13-.05-.18-.1Z"/>
          </g>
        </g>
        <path class="cls-11" d="m455.06,463.7h-125.84c1.58-10.64,4.23-25.76,8.16-39.74.14-.51.29-1.02.43-1.53.06-.2.12-.4.17-.6.05-.16.1-.31.14-.47.8-2.68,1.64-5.31,2.54-7.84.95-2.71,1.96-5.3,3.03-7.73.22-.5.44-.99.67-1.47,3.38-7.28,7.32-12.92,11.89-15.43,3.3-1.81,6.53-3.39,9.61-4.75.33-.14.65-.29.98-.43,13.05-5.62,23.46-7.47,26.82-7.95.75-.11,1.15-.15,1.15-.15l35.52-.5h.48s.02,0,.07.01h.03c.14.03.47.09.94.2,3.12.7,12.73,3.27,21.07,9.7.35.26.7.54,1.05.83,0,0,0,0,0,0,6.27,5.16,11.61,12.6,12.57,23.21,1.6,17.67-5.79,40.3-11.49,54.64Z"/>
        <path class="cls-17" d="m394.81,375.61s-12.26,14.3-28.6,60.77l65.87-61.28-37.28.51Z"/>
        <g>
          <path d="m438.31,325.66c3.64-1.82,7.58-3.15,11.63-3.27,4.05-.11,8.23,1.08,11.27,3.83,2.57,2.31,4.19,5.57,5.09,8.96,2.15,8.13.17,17.29-5.14,23.71-5.31,6.43-13.79,9.94-21.96,9.11-4.11-.42-8.27-2-10.98-5.19-2.29-2.7-3.35-6.33-3.44-9.91-.09-3.58.71-7.12,1.79-10.52,1.64-5.16,4.14-10.38,8.59-13.3l3.15-3.43Z"/>
          <g>
            <path class="cls-15" d="m371.37,312.92c-.37,5.09-.05,10.29.36,15.16.48,5.74,1.1,11.47,1.41,17.22.21,3.68,1.73,7.15,4.29,9.77,2.86,2.94,6.78,4.58,10.88,4.57l6.47.11v.14l-.07,6.77-.02,2.51-.37,5.54s-14.74,22.77-6.06,28.9c8.68,6.13,42.13-27.06,42.13-27.06l-1-29.79c9.39-1.23,15.64-10.17,11.39-18.09-2.79-5.19-7.57-4.3-11.07-2.67,1.55-3.68,2.4-7.71,2.4-11.94,0-16.92-13.73-30.62-30.64-30.61-8.84,0-17.53,3.64-23.27,10.46-4.54,5.4-6.31,12.11-6.81,19.02Z"/>
            <g class="cls-16">
              <path class="cls-12" d="m371.37,312.92c-.37,5.09-.05,10.29.36,15.16.48,5.74,1.1,11.47,1.41,17.22.21,3.68,1.73,7.15,4.29,9.77,2.86,2.94,6.78,4.58,10.88,4.57l6.47.11v.14l-.07,6.77-.02,2.51-.37,5.54s-14.74,22.77-6.06,28.9c8.68,6.13,42.13-27.06,42.13-27.06l-1-29.79c9.39-1.23,15.64-10.17,11.39-18.09-2.79-5.19-7.57-4.3-11.07-2.67,1.55-3.68,2.4-7.71,2.4-11.94,0-16.92-13.73-30.62-30.64-30.61-8.84,0-17.53,3.64-23.27,10.46-4.54,5.4-6.31,12.11-6.81,19.02Z"/>
            </g>
            <g>
              <path d="m389.19,338.45c-.14,0-.28-.06-.39-.17l-3.45-3.64c-.26-.27-.58-.62-.71-1.06-.15-.54.03-1.05.16-1.39.4-1.11.87-2.23,1.33-3.31,1.1-2.6,2.24-5.29,2.35-8,.01-.29.27-.51.55-.51.29.01.52.26.51.55-.12,2.91-1.29,5.69-2.43,8.37-.45,1.07-.92,2.17-1.31,3.25-.1.28-.19.55-.13.75.05.19.27.42.46.62l3.45,3.64c.2.21.19.55-.02.75-.1.1-.24.15-.37.15Z"/>
              <path d="m390.37,341.98c-1.07,0-2.13-.22-3.12-.67-.27-.12-.38-.44-.26-.71.12-.27.44-.39.71-.26,2.77,1.28,6.47.29,8.23-2.21.17-.24.5-.3.74-.13.24.17.3.5.13.74-1.46,2.06-3.94,3.23-6.43,3.23Z"/>
              <g>
                <path d="m382.45,317.72c1.15-.32,1.12-1.58-.02-1.9-1.18-.33-2.5-.47-3.78-.36-1.86.16-3.58.82-4.72,1.78-.38.32-.15.84.39.95,1.76.38,3.59.45,5.42.14.89-.15,1.81-.36,2.72-.62Z"/>
                <path d="m400,317.85c-1.15-.32-1.12-1.58.02-1.9,1.18-.33,2.5-.47,3.78-.36,1.86.16,3.58.82,4.72,1.78.38.32.15.84-.39.95-1.76.38-3.59.45-5.42.14-.89-.15-1.81-.36-2.72-.62Z"/>
              </g>
            </g>
            <path d="m394.7,366.67c17.25-1.71,21.62-8.98,21.62-8.98-10.09,2.31-18.73,2.3-21.55,2.21l-.07,6.77Z"/>
            <path d="m428.7,341.67s.04,0,.06,0c.24-.03.41-.26.37-.5-.47-3.24.08-6.64,1.55-9.56.87-1.74,1.96-3.08,3.23-3.99,1.47-1.05,3.2-1.51,4.76-1.23.24.03.47-.12.51-.36.04-.24-.12-.47-.36-.51-1.78-.31-3.76.2-5.42,1.39-1.38.99-2.56,2.44-3.5,4.31-1.55,3.09-2.13,6.67-1.63,10.09.03.22.22.38.44.38Z"/>
            <g>
              <path d="m400.01,326.44c0,1.78,1.44,3.22,3.22,3.22,1.78,0,3.22-1.44,3.22-3.22,0-1.78-1.44-3.22-3.22-3.22-1.78,0-3.22,1.44-3.22,3.22Z"/>
              <path d="m376.04,326.46c0,1.78,1.44,3.22,3.22,3.22,1.78,0,3.22-1.44,3.22-3.22,0-1.78-1.44-3.22-3.22-3.22-1.78,0-3.22,1.44-3.22,3.22Z"/>
            </g>
          </g>
          <path d="m430.28,326.18c-1.27.73-2.37,1.77-3.62,2.53-.35.22-2.09,1-3.72,1.77-1.41.67-3.06-.26-3.21-1.81-.23-2.35-.76-4.63-2.15-6.49-.91-1.22-2.14-2.17-3.31-3.15-5.13-4.25-9.71-9.41-12.1-15.63-2.28-5.91-2.36-12.89.72-18.4.87-1.56,3.13-2.73,4.91-2.63,8.42.47,16.8,1.7,25,3.65,2.83.67,5.78,1.51,7.85,3.55,1.84,1.82,2.77,4.41,3.01,6.98.24,2.58-.14,5.17-.58,7.72-1.28,7.34-1.04,15.54-3.39,22.62.18-.53-6.63-1.66-7.28-1.54-.78.14-1.48.44-2.14.82Z"/>
          <path d="m408.01,282.62c-4.45,3.02-7.83,7.45-10.08,12.33-2.25,4.88-3.42,10.21-3.96,15.55-.17,0-.7.17-.87.17h-32.19c1.41-6.25,2.36-13.03,6.34-18.05,3.63-4.58,8.96-7.61,14.57-9.24,5.61-1.63,11.53-1.93,17.37-1.77,3.28.09,5.67.1,8.82,1.01Z"/>
        </g>
        <path d="m366.21,436.91c-.14,0-.27-.05-.38-.16-.21-.21-.21-.55,0-.75,11.02-11.1,64.81-31.91,73.08-35.07l-14.09-9.13c-.18-.12-.27-.33-.23-.55.04-.21.2-.38.42-.42l28.6-5.96c.29-.06.57.13.63.41.06.29-.12.57-.41.63l-27.32,5.69,13.89,9c.17.11.26.3.24.5s-.15.37-.34.44c-.62.23-62.15,23.58-73.68,35.2-.1.11-.24.16-.38.16Z"/>
        <path d="m378.14,392.47c-.03.19-.17.35-.36.42l-15.54,5.01c2.49,2.76,11.83,14.17,8.23,26.8,0,.03-.02.07-.03.1-.79,2.74-2.02,6.26-3.5,10.18-.15.37-.29.75-.44,1.13-.1.26-.2.53-.31.8-3.38,8.79-7.8,19.12-11.16,26.79h-1.17c5.16-11.77,12.95-30.11,15.58-39.3,3.95-13.82-8.42-26.24-8.54-26.37-.13-.13-.19-.32-.15-.5.05-.18.18-.33.36-.38l15.35-4.96-10.4-7.72c-.11-.09-.18-.21-.2-.33-.03-.14,0-.29.09-.42.18-.24.51-.29.75-.11l.14.1,11.09,8.24c.16.12.24.32.21.52Z"/>
        <g>
          <g>
            <g>
              <path class="cls-15" d="m358.21,364.64s-9.87,8.68-12.09,20.59c-1.27,6.87-2.32,18.64-2.98,27.39-.49,6.45-.76,11.25-.76,11.25l-27.57.51s.92-4.76,1.86-10.33c.89-5.38,1.79-11.52,1.88-14.86.17-6.81-1.36-22.13.17-24.68s6.13-6.47,6.13-6.47c0,0,2.38-7.32,6.81-7.32,0,0,1.36-6.13,5.27-5.27,0,0,.85-4.26,3.75-3.92,2.89.34,16,4.77,16,4.77,0,0-.51,4.93-4.77,4.93,0,0,2.04,4.09-6.98,4.6l.85,1.87s7.83-5.28,12.43-3.06Z"/>
              <g class="cls-14">
                <path class="cls-12" d="m358.21,364.64s-9.87,8.68-12.09,20.59c-1.27,6.87-2.32,18.64-2.98,27.39-.49,6.45-.76,11.25-.76,11.25l-27.57.51s.92-4.76,1.86-10.33c.89-5.38,1.79-11.52,1.88-14.86.17-6.81-1.36-22.13.17-24.68s6.13-6.47,6.13-6.47c0,0,2.38-7.32,6.81-7.32,0,0,1.36-6.13,5.27-5.27,0,0,.85-4.26,3.75-3.92,2.89.34,16,4.77,16,4.77,0,0-.51,4.93-4.77,4.93,0,0,2.04,4.09-6.98,4.6l.85,1.87s7.83-5.28,12.43-3.06Z"/>
              </g>
            </g>
            <path class="cls-18" d="m359.12,363.56c.66.1.91.94.43,1.4-2.9,2.77-10.31,12.1-12.74,21.25-1.8,6.75-2.4,17.8-3.06,26.55-2.85.8-7.39,1.65-12.76,2.77-7.96,1.66-12.4.07-14.56-1.62.89-5.38,1.31-11.09,1.4-14.43.17-6.81-.75-22.04.45-24.77,1.66-3.77,6.26-6.83,6.26-6.83,0,0,2.4-7.47,6.83-7.47,0,0,1.39-5.97,5.3-5.11,0,0,.99-4.36,3.89-4.02,2.89.34,16.4,4.85,16.4,4.85,0,0-.27,5.36-4.53,5.36,0,0,2,3.96-7.02,4.47l.38,1.28s8.34-4.47,13.34-3.69Z"/>
            <path d="m346.21,366.73c-.58,0-.91-.14-1.09-.29l-13.64-5.22c-.28-.11-.41-.41-.31-.69.11-.28.41-.41.69-.31l13.74,5.26c.09.04.17.09.23.17-.01-.02.09.03.34.03.46,0,1.46-.13,3.37-.95,1.27-.55,2.09-1.22,2.37-1.95.14-.37.12-.67.09-.86l-15.26-5.97c-.27-.11-.41-.42-.3-.69.11-.28.42-.41.69-.3l15.49,6.06c.13.05.23.14.29.26.04.08.38.84.01,1.84-.39,1.04-1.38,1.91-2.96,2.59-1.82.79-3,1.03-3.75,1.03Z"/>
            <path d="m341.64,372.06c-3.08,0-8.5-1.87-8.73-1.95-.28-.1-.43-.4-.33-.68.1-.28.4-.43.68-.33.05.02,5.48,1.88,8.38,1.88,1.37,0,2.51-1,3.13-1.93.58-.88.79-1.83.53-2.43-.12-.27,0-.58.28-.7.27-.12.59,0,.7.28.41.95.17,2.23-.62,3.44-.77,1.17-2.23,2.41-4.02,2.41Z"/>
            <path d="m337.14,379.08c-.25,0-.51-.02-.77-.07-3.41-.64-9.44-3.37-9.7-3.49-.27-.12-.39-.44-.27-.71.12-.27.44-.39.71-.27.06.03,6.17,2.79,9.45,3.41,2.36.45,3.85-2.11,4.34-3.11-1.04-.68-4.05-2.64-6.61-4.07-3.07-1.72-8.89-2.67-8.95-2.68-.29-.05-.49-.32-.44-.61.05-.29.32-.48.61-.44.25.04,6.07.99,9.3,2.81,3.17,1.78,7.02,4.34,7.06,4.36.21.14.29.4.2.64-.07.18-1.67,4.24-4.93,4.24Z"/>
          </g>
          <polygon class="cls-11" points="354.21 421.83 349.94 463.7 303 463.7 310.29 421.83 354.21 421.83"/>
          <path d="m348.86,463.7h-1.07l-.49-41.01-4.84-.13-4.65-.13-21.81-.6-.71-.02-4.75-.13c-.3-.01-.53-.26-.52-.55,0-.29.24-.52.53-.52h.02l4.93.13,22.62.62,4.4.12,5.32.15c.16.01.31.08.4.2.08.09.12.2.12.33l.5,41.54Z"/>
        </g>
      </g>
      <g>
        <g>
          <g>
            <g>
              <path class="cls-17" d="m334.76,308.37c-.65,2.02-2.07,3.8-4.12,4.85l-5.26,2.7-8.83,4.53c-4.09,2.09-9.17.5-11.29-3.54-1.06-2.01-1.19-4.28-.54-6.31.65-2.02,2.08-3.8,4.11-4.85l7.78-3.98,6.32-3.24c4.09-2.1,9.17-.51,11.29,3.53,1.05,2.02,1.19,4.29.54,6.31Z"/>
              <path class="cls-11" d="m324.89,316.1l-8.34,4.35c-4.09,2.09-9.17.5-11.29-3.54-1.06-2.01-1.19-4.28-.54-6.31.65-2.02,2.08-3.8,4.11-4.85l6.99-3.63c1.34,1.11,3.04,2.99,4.72,5.55,1.89,2.89,3.68,6.26,4.34,8.43Z"/>
            </g>
            <path d="m325.11,316.06l-.64.33c-2.15-5.29-4.71-10.55-9.14-13.96l.69-.35c4.39,3.5,6.94,8.73,9.09,13.99Z"/>
          </g>
          <g>
            <g>
              <path class="cls-17" d="m437.74,365.54c.64-2.02,2.06-3.81,4.11-4.86l5.25-2.72,8.82-4.56c4.08-2.1,9.17-.53,11.3,3.51,1.07,2.01,1.2,4.28.56,6.31-.64,2.02-2.07,3.81-4.1,4.86l-7.77,4-6.31,3.26c-4.08,2.11-9.17.54-11.3-3.5-1.06-2.02-1.2-4.29-.56-6.31Z"/>
              <path class="cls-11" d="m447.59,357.79l8.32-4.38c4.08-2.1,9.17-.53,11.3,3.51,1.07,2.01,1.2,4.28.56,6.31-.64,2.02-2.07,3.81-4.1,4.86l-6.98,3.65c-1.34-1.11-3.05-2.98-4.74-5.54-1.9-2.88-3.7-6.24-4.37-8.41Z"/>
            </g>
            <path d="m447.37,357.83l.64-.33c2.17,5.28,4.74,10.54,9.18,13.94l-.69.36c-4.4-3.49-6.97-8.71-9.13-13.96Z"/>
          </g>
        </g>
        <g>
          <line class="cls-6" x1="305.44" y1="354.93" x2="305.44" y2="380.47"/>
          <line class="cls-6" x1="312.87" y1="360.04" x2="297.33" y2="375.97"/>
          <line class="cls-6" x1="318.21" y1="367.7" x2="292.67" y2="367.7"/>
          <line class="cls-6" x1="313.46" y1="375.49" x2="297.33" y2="360.14"/>
        </g>
        <g>
          <line class="cls-6" x1="447.15" y1="424.63" x2="447.15" y2="450.17"/>
          <line class="cls-6" x1="454.57" y1="429.75" x2="439.03" y2="445.68"/>
          <line class="cls-6" x1="459.92" y1="437.4" x2="434.38" y2="437.4"/>
          <line class="cls-6" x1="455.16" y1="445.19" x2="439.03" y2="429.84"/>
        </g>
      </g>
    </g>
  </g>
</svg>